<svg width="1600" height="882" viewBox="0 0 1600 882" xmlns="http://www.w3.org/2000/svg"><defs><pattern id="satori_pattern_id_1" x="0" y="0" width="0.0625" height="0.11337868480725624" patternUnits="objectBoundingBox"><radialGradient id="satori_radial_id_1"><stop offset="0" stop-color="lightgray"/><stop offset="0.02" stop-color="lightgray"/><stop offset="0" stop-color="transparent"/><stop offset="1" stop-color="transparent"/></radialGradient><mask id="satori_mask_id_1"><rect x="0" y="0" width="100" height="100" fill="#fff"/></mask><rect x="0" y="0" width="100" height="100" fill="transparent"/><circle cx="75" cy="75" width="100" height="100" r="106.06601717798213" fill="url(#satori_radial_id_1)" mask="url(#satori_mask_id_1)"/></pattern><pattern id="satori_pattern_id_0" x="0" y="0" width="0.0625" height="0.11337868480725624" patternUnits="objectBoundingBox"><radialGradient id="satori_radial_id_0"><stop offset="0" stop-color="lightgray"/><stop offset="0.02" stop-color="lightgray"/><stop offset="0" stop-color="transparent"/><stop offset="1" stop-color="transparent"/></radialGradient><mask id="satori_mask_id_0"><rect x="0" y="0" width="100" height="100" fill="#fff"/></mask><rect x="0" y="0" width="100" height="100" fill="transparent"/><circle cx="25" cy="25" width="100" height="100" r="106.06601717798213" fill="url(#satori_radial_id_0)" mask="url(#satori_mask_id_0)"/></pattern></defs><mask id="satori_om-id"><rect x="0" y="0" width="1600" height="882" fill="#fff"/></mask><rect x="0" y="0" width="1600" height="882" fill="white"/><rect x="0" y="0" width="1600" height="882" fill="url(#satori_pattern_id_1)"/><rect x="0" y="0" width="1600" height="882" fill="url(#satori_pattern_id_0)"/><mask id="satori_om-id-0"><rect x="42" y="42" width="209" height="24" fill="#fff"/></mask><mask id="satori_om-id-0-0"><rect x="42" y="42" width="24" height="24" fill="#fff"/></mask><rect x="42" y="42" width="24" height="24" fill="black"/><mask id="satori_om-id-0-1"><rect x="74" y="42" width="177" height="24" fill="#fff"/></mask><path fill="black" d="M86.1 50.4L83.2 50.4Q83.1 49.5 82.4 49.0Q81.8 48.5 80.7 48.5L80.7 48.5Q79.9 48.5 79.4 48.8Q78.9 49.0 78.6 49.3Q78.3 49.7 78.3 50.2L78.3 50.2Q78.3 50.6 78.5 50.9Q78.7 51.1 79 51.4Q79.3 51.6 79.7 51.7Q80.2 51.9 80.6 52.0L80.6 52.0L81.9 52.3Q82.9 52.5 83.7 52.9Q84.5 53.2 85.1 53.7Q85.6 54.2 86.0 55.0Q86.3 55.7 86.3 56.6L86.3 56.6Q86.3 57.9 85.6 58.9Q85.0 59.9 83.7 60.4Q82.4 60.9 80.7 60.9L80.7 60.9Q78.9 60.9 77.6 60.4Q76.3 59.8 75.6 58.8Q74.8 57.7 74.8 56.2L74.8 56.2L77.8 56.2Q77.8 56.9 78.2 57.4Q78.6 57.9 79.2 58.1Q79.8 58.3 80.6 58.3L80.6 58.3Q81.4 58.3 82.0 58.1Q82.6 57.9 82.9 57.5Q83.2 57.1 83.2 56.6L83.2 56.6Q83.2 56.1 82.9 55.7Q82.6 55.4 82.1 55.2Q81.5 54.9 80.7 54.7L80.7 54.7L79.1 54.3Q77.3 53.9 76.2 52.9Q75.2 52.0 75.2 50.4L75.2 50.4Q75.2 49.1 75.9 48.1Q76.6 47.1 77.8 46.5Q79.1 46.0 80.7 46.0L80.7 46.0Q82.3 46.0 83.5 46.5Q84.7 47.1 85.4 48.1Q86.1 49.1 86.1 50.4L86.1 50.4ZM92.9 60.9L92.9 60.9Q91.3 60.9 90.1 60.2Q88.9 59.5 88.2 58.3Q87.5 57.0 87.5 55.3L87.5 55.3Q87.5 53.6 88.2 52.4Q88.9 51.1 90.1 50.4Q91.3 49.7 92.9 49.7L92.9 49.7Q94.6 49.7 95.8 50.4Q97.0 51.1 97.6 52.4Q98.3 53.6 98.3 55.3L98.3 55.3Q98.3 57.0 97.6 58.3Q97.0 59.5 95.8 60.2Q94.6 60.9 92.9 60.9ZM92.9 58.6L92.9 58.6Q93.7 58.6 94.2 58.2Q94.7 57.7 94.9 57.0Q95.2 56.2 95.2 55.3L95.2 55.3Q95.2 54.3 94.9 53.6Q94.7 52.8 94.2 52.4Q93.7 52.0 92.9 52.0L92.9 52.0Q92.2 52.0 91.7 52.4Q91.1 52.8 90.9 53.6Q90.6 54.3 90.6 55.3L90.6 55.3Q90.6 56.2 90.9 57.0Q91.1 57.7 91.7 58.2Q92.2 58.6 92.9 58.6ZM99.1 49.8L105.8 49.8L105.8 52.1L99.1 52.1L99.1 49.8ZM103.6 60.7L100.6 60.7L100.6 49.0Q100.6 47.8 101.1 47.1Q101.5 46.3 102.4 45.9Q103.2 45.5 104.2 45.5L104.2 45.5Q104.9 45.5 105.5 45.6Q106.0 45.7 106.3 45.8L106.3 45.8L105.8 48.1Q105.6 48.0 105.4 48.0Q105.1 47.9 104.8 47.9L104.8 47.9Q104.2 47.9 103.9 48.2Q103.6 48.5 103.6 49.1L103.6 49.1L103.6 60.7ZM106.6 49.8L113.1 49.8L113.1 52.1L106.6 52.1L106.6 49.8ZM108.1 57.8L108.1 47.2L111.1 47.2L111.1 57.4Q111.1 57.8 111.2 58.0Q111.3 58.2 111.6 58.3Q111.8 58.4 112.1 58.4L112.1 58.4Q112.3 58.4 112.5 58.4Q112.7 58.4 112.9 58.3L112.9 58.3L113.3 60.6Q113.1 60.7 112.7 60.8Q112.3 60.8 111.7 60.9L111.7 60.9Q110.6 60.9 109.8 60.6Q109.0 60.2 108.5 59.5Q108.0 58.8 108.1 57.8L108.1 57.8ZM120.1 60.7L116.9 60.7L114.0 49.8L117.0 49.8L118.7 57.1L118.8 57.1L120.6 49.8L123.6 49.8L125.4 57.1L125.5 57.1L127.1 49.8L130.2 49.8L127.2 60.7L124.0 60.7L122.1 53.9L122.0 53.9L120.1 60.7ZM134.6 60.9L134.6 60.9Q133.5 60.9 132.7 60.6Q131.9 60.2 131.4 59.5Q131.0 58.8 131.0 57.7L131.0 57.7Q131.0 56.8 131.3 56.1Q131.6 55.5 132.2 55.2Q132.8 54.8 133.5 54.6Q134.2 54.4 135.0 54.3L135.0 54.3Q136.0 54.2 136.6 54.1Q137.2 54.0 137.4 53.9Q137.7 53.7 137.7 53.3L137.7 53.3L137.7 53.3Q137.7 52.6 137.3 52.2Q136.8 51.9 136.1 51.9L136.1 51.9Q135.3 51.9 134.8 52.2Q134.3 52.6 134.1 53.1L134.1 53.1L131.3 52.9Q131.5 51.9 132.2 51.2Q132.8 50.5 133.8 50.1Q134.8 49.7 136.1 49.7L136.1 49.7Q137.0 49.7 137.8 49.9Q138.7 50.1 139.3 50.5Q140.0 51.0 140.3 51.7Q140.7 52.4 140.7 53.4L140.7 53.4L140.7 60.7L137.8 60.7L137.8 59.2L137.8 59.2Q137.5 59.7 137.1 60.1Q136.6 60.5 136.0 60.7Q135.4 60.9 134.6 60.9ZM135.4 58.8L135.4 58.8Q136.1 58.8 136.6 58.6Q137.1 58.3 137.4 57.9Q137.7 57.4 137.7 56.8L137.7 56.8L137.7 55.7Q137.6 55.8 137.3 55.8Q137.1 55.9 136.8 56.0Q136.5 56.0 136.2 56.1Q135.9 56.1 135.6 56.2L135.6 56.2Q135.1 56.2 134.7 56.4Q134.3 56.6 134.1 56.9Q133.8 57.1 133.8 57.6L133.8 57.6Q133.8 58.2 134.3 58.5Q134.7 58.8 135.4 58.8ZM145.8 60.7L142.7 60.7L142.7 49.8L145.7 49.8L145.7 51.7L145.8 51.7Q146.1 50.7 146.8 50.2Q147.5 49.7 148.4 49.7L148.4 49.7Q148.6 49.7 148.9 49.7Q149.2 49.7 149.4 49.8L149.4 49.8L149.4 52.4Q149.2 52.4 148.8 52.3Q148.4 52.3 148.1 52.3L148.1 52.3Q147.4 52.3 146.9 52.6Q146.4 52.9 146.1 53.4Q145.8 53.9 145.8 54.5L145.8 54.5L145.8 60.7ZM155.1 60.9L155.1 60.9Q153.4 60.9 152.2 60.2Q151.0 59.6 150.3 58.3Q149.7 57.0 149.7 55.3L149.7 55.3Q149.7 53.6 150.3 52.4Q151.0 51.1 152.1 50.4Q153.3 49.7 154.9 49.7L154.9 49.7Q156.0 49.7 157.0 50.0Q157.9 50.4 158.6 51.0Q159.3 51.7 159.7 52.8Q160.1 53.8 160.1 55.2L160.1 55.2L160.1 56.0L150.9 56.0L150.9 54.2L157.2 54.2Q157.2 53.5 156.9 53.0Q156.7 52.5 156.2 52.2Q155.7 51.9 155.0 51.9L155.0 51.9Q154.3 51.9 153.8 52.2Q153.2 52.6 152.9 53.1Q152.6 53.6 152.6 54.3L152.6 54.3L152.6 56.0Q152.6 56.9 152.9 57.4Q153.2 58.0 153.8 58.4Q154.4 58.7 155.1 58.7L155.1 58.7Q155.6 58.7 156.0 58.5Q156.5 58.4 156.8 58.1Q157.1 57.8 157.2 57.4L157.2 57.4L160.0 57.6Q159.8 58.6 159.1 59.4Q158.5 60.1 157.4 60.5Q156.4 60.9 155.1 60.9Z M176.4 60.7L166.6 60.7L166.6 46.2L176.4 46.2L176.4 48.7L169.7 48.7L169.7 52.2L175.9 52.2L175.9 54.7L169.7 54.7L169.7 58.2L176.4 58.2L176.4 60.7ZM181.5 54.4L181.5 54.4L181.5 60.7L178.5 60.7L178.5 49.8L181.4 49.8L181.4 51.7L181.5 51.7Q181.9 50.8 182.7 50.2Q183.6 49.7 184.8 49.7L184.8 49.7Q185.9 49.7 186.8 50.2Q187.6 50.7 188.1 51.6Q188.5 52.5 188.5 53.8L188.5 53.8L188.5 60.7L185.5 60.7L185.5 54.3Q185.5 53.3 185.0 52.7Q184.5 52.2 183.6 52.2L183.6 52.2Q183.0 52.2 182.5 52.4Q182.0 52.7 181.8 53.2Q181.5 53.7 181.5 54.4ZM195.5 65.0L195.5 65.0Q194.0 65.0 193.0 64.6Q192.0 64.2 191.3 63.5Q190.7 62.9 190.5 62.0L190.5 62.0L193.3 61.6Q193.5 61.9 193.7 62.2Q194.0 62.5 194.5 62.7Q194.9 62.9 195.6 62.9L195.6 62.9Q196.6 62.9 197.2 62.4Q197.9 61.9 197.9 60.8L197.9 60.8L197.9 58.8L197.7 58.8Q197.5 59.2 197.1 59.6Q196.7 60.1 196.1 60.3Q195.5 60.6 194.6 60.6L194.6 60.6Q193.4 60.6 192.4 60.0Q191.4 59.4 190.8 58.2Q190.2 57.1 190.2 55.2L190.2 55.2Q190.2 53.4 190.8 52.1Q191.4 50.9 192.4 50.3Q193.4 49.7 194.6 49.7L194.6 49.7Q195.5 49.7 196.1 50.0Q196.8 50.3 197.1 50.7Q197.5 51.2 197.7 51.6L197.7 51.6L197.8 51.6L197.8 49.8L200.8 49.8L200.8 60.8Q200.8 62.2 200.2 63.2Q199.5 64.1 198.3 64.6Q197.1 65.0 195.5 65.0ZM195.6 58.3L195.6 58.3Q196.3 58.3 196.8 57.9Q197.3 57.6 197.6 56.9Q197.9 56.2 197.9 55.2L197.9 55.2Q197.9 54.3 197.6 53.6Q197.3 52.9 196.8 52.5Q196.3 52.1 195.6 52.1L195.6 52.1Q194.8 52.1 194.3 52.5Q193.8 52.9 193.5 53.6Q193.3 54.3 193.3 55.2L193.3 55.2Q193.3 56.2 193.6 56.9Q193.8 57.5 194.3 57.9Q194.8 58.3 195.6 58.3ZM206.0 60.7L202.9 60.7L202.9 49.8L206.0 49.8L206.0 60.7ZM204.5 48.4L204.5 48.4Q203.8 48.4 203.3 48.0Q202.8 47.5 202.8 46.9L202.8 46.9Q202.8 46.2 203.3 45.8Q203.8 45.3 204.5 45.3L204.5 45.3Q205.1 45.3 205.6 45.8Q206.1 46.2 206.1 46.9L206.1 46.9Q206.1 47.5 205.6 48.0Q205.1 48.4 204.5 48.4ZM211.1 54.4L211.1 54.4L211.1 60.7L208.1 60.7L208.1 49.8L210.9 49.8L210.9 51.7L211.1 51.7Q211.4 50.8 212.3 50.2Q213.1 49.7 214.4 49.7L214.4 49.7Q215.5 49.7 216.3 50.2Q217.2 50.7 217.7 51.6Q218.1 52.5 218.1 53.8L218.1 53.8L218.1 60.7L215.1 60.7L215.1 54.3Q215.1 53.3 214.6 52.7Q214.1 52.2 213.2 52.2L213.2 52.2Q212.5 52.2 212.1 52.4Q211.6 52.7 211.4 53.2Q211.1 53.7 211.1 54.4ZM225.2 60.9L225.2 60.9Q223.5 60.9 222.3 60.2Q221.0 59.6 220.4 58.3Q219.7 57.0 219.7 55.3L219.7 55.3Q219.7 53.6 220.4 52.4Q221.0 51.1 222.2 50.4Q223.4 49.7 225.0 49.7L225.0 49.7Q226.1 49.7 227.0 50.0Q228.0 50.4 228.7 51.0Q229.4 51.7 229.8 52.8Q230.2 53.8 230.2 55.2L230.2 55.2L230.2 56.0L220.9 56.0L220.9 54.2L227.3 54.2Q227.3 53.5 227.0 53.0Q226.7 52.5 226.2 52.2Q225.7 51.9 225.1 51.9L225.1 51.9Q224.4 51.9 223.9 52.2Q223.3 52.6 223.0 53.1Q222.7 53.6 222.7 54.3L222.7 54.3L222.7 56.0Q222.7 56.9 223.0 57.4Q223.3 58.0 223.9 58.4Q224.4 58.7 225.2 58.7L225.2 58.7Q225.7 58.7 226.1 58.5Q226.5 58.4 226.8 58.1Q227.1 57.8 227.3 57.4L227.3 57.4L230.1 57.6Q229.9 58.6 229.2 59.4Q228.6 60.1 227.5 60.5Q226.5 60.9 225.2 60.9ZM236.8 60.9L236.8 60.9Q235.1 60.9 233.9 60.2Q232.7 59.6 232.0 58.3Q231.4 57.0 231.4 55.3L231.4 55.3Q231.4 53.6 232.0 52.4Q232.7 51.1 233.9 50.4Q235.1 49.7 236.7 49.7L236.7 49.7Q237.7 49.7 238.7 50.0Q239.6 50.4 240.3 51.0Q241.0 51.7 241.4 52.8Q241.8 53.8 241.8 55.2L241.8 55.2L241.8 56.0L232.6 56.0L232.6 54.2L238.9 54.2Q238.9 53.5 238.7 53.0Q238.4 52.5 237.9 52.2Q237.4 51.9 236.7 51.9L236.7 51.9Q236.0 51.9 235.5 52.2Q235.0 52.6 234.7 53.1Q234.4 53.6 234.4 54.3L234.4 54.3L234.4 56.0Q234.4 56.9 234.7 57.4Q235.0 58.0 235.5 58.4Q236.1 58.7 236.8 58.7L236.8 58.7Q237.3 58.7 237.8 58.5Q238.2 58.4 238.5 58.1Q238.8 57.8 238.9 57.4L238.9 57.4L241.7 57.6Q241.5 58.6 240.9 59.4Q240.2 60.1 239.2 60.5Q238.1 60.9 236.8 60.9ZM246.5 60.7L243.4 60.7L243.4 49.8L246.4 49.8L246.4 51.7L246.5 51.7Q246.8 50.7 247.5 50.2Q248.2 49.7 249.1 49.7L249.1 49.7Q249.3 49.7 249.6 49.7Q249.9 49.7 250.1 49.8L250.1 49.8L250.1 52.4Q249.9 52.4 249.5 52.3Q249.1 52.3 248.8 52.3L248.8 52.3Q248.1 52.3 247.6 52.6Q247.1 52.9 246.8 53.4Q246.5 53.9 246.5 54.5L246.5 54.5L246.5 60.7Z "/><mask id="satori_om-id-1"><rect x="635" y="393" width="330" height="96" fill="#fff"/></mask><rect x="635" y="393" width="330" height="96" fill="black"/><path fill="white" d="M707.2 454.5L687.5 454.5L687.5 425.4L707.1 425.4L707.1 430.5L693.7 430.5L693.7 437.4L706.1 437.4L706.1 442.5L693.7 442.5L693.7 449.4L707.2 449.4L707.2 454.5ZM717.6 441.9L717.6 441.9L717.6 454.5L711.6 454.5L711.6 432.7L717.4 432.7L717.4 436.5L717.6 436.5Q718.3 434.6 720.0 433.5Q721.8 432.4 724.2 432.4L724.2 432.4Q726.5 432.4 728.1 433.4Q729.8 434.4 730.8 436.2Q731.7 438.0 731.7 440.6L731.7 440.6L731.7 454.5L725.7 454.5L725.7 441.7Q725.7 439.7 724.6 438.5Q723.6 437.4 721.8 437.4L721.8 437.4Q720.6 437.4 719.6 437.9Q718.7 438.5 718.2 439.5Q717.7 440.5 717.6 441.9ZM746.1 454.9L746.1 454.9Q742.7 454.9 740.3 453.5Q737.9 452.2 736.6 449.6Q735.3 447.1 735.3 443.7L735.3 443.7Q735.3 440.3 736.6 437.8Q737.9 435.2 740.3 433.8Q742.6 432.4 745.9 432.4L745.9 432.4Q748.0 432.4 749.9 433.1Q751.7 433.7 753.1 435.1Q754.5 436.5 755.3 438.6Q756.1 440.7 756.1 443.5L756.1 443.5L756.1 445.1L737.7 445.1L737.7 441.4L750.4 441.4Q750.4 440.1 749.8 439.0Q749.3 438.0 748.3 437.5Q747.3 436.9 746.0 436.9L746.0 436.9Q744.6 436.9 743.5 437.5Q742.5 438.2 741.9 439.2Q741.3 440.3 741.2 441.6L741.2 441.6L741.2 445.1Q741.2 446.7 741.9 447.9Q742.5 449.1 743.6 449.7Q744.7 450.4 746.2 450.4L746.2 450.4Q747.2 450.4 748.0 450.1Q748.9 449.8 749.5 449.2Q750.1 448.7 750.4 447.9L750.4 447.9L756.0 448.2Q755.6 450.2 754.2 451.7Q752.9 453.2 750.9 454.1Q748.8 454.9 746.1 454.9ZM766.0 454.9L766.0 454.9Q763.9 454.9 762.2 454.2Q760.6 453.4 759.7 452.0Q758.7 450.5 758.7 448.4L758.7 448.4Q758.7 446.6 759.4 445.3Q760.0 444.1 761.2 443.3Q762.3 442.6 763.8 442.2Q765.3 441.8 766.9 441.7L766.9 441.7Q768.8 441.5 770.0 441.3Q771.1 441.1 771.7 440.8Q772.2 440.4 772.2 439.7L772.2 439.7L772.2 439.6Q772.2 438.3 771.3 437.5Q770.5 436.8 769.0 436.8L769.0 436.8Q767.3 436.8 766.4 437.5Q765.4 438.2 765.1 439.3L765.1 439.3L759.5 438.8Q759.9 436.9 761.2 435.4Q762.4 433.9 764.4 433.2Q766.4 432.4 769.0 432.4L769.0 432.4Q770.8 432.4 772.5 432.8Q774.1 433.2 775.4 434.1Q776.7 435.0 777.5 436.4Q778.2 437.8 778.2 439.8L778.2 439.8L778.2 454.5L772.5 454.5L772.5 451.4L772.3 451.4Q771.8 452.5 770.9 453.2Q770.0 454.0 768.8 454.5Q767.6 454.9 766.0 454.9ZM767.7 450.7L767.7 450.7Q769.0 450.7 770.0 450.2Q771.1 449.6 771.7 448.7Q772.2 447.8 772.2 446.7L772.2 446.7L772.2 444.4Q772.0 444.5 771.5 444.7Q771.0 444.8 770.4 445.0Q769.8 445.1 769.1 445.2Q768.5 445.3 768.0 445.3L768.0 445.3Q767.0 445.5 766.2 445.8Q765.4 446.2 764.9 446.8Q764.5 447.3 764.5 448.2L764.5 448.2Q764.5 449.4 765.4 450.1Q766.3 450.7 767.7 450.7Z M790.5 425.4L797.5 425.4L803.3 435.3L803.6 435.3L809.5 425.4L816.4 425.4L807.5 439.9L816.6 454.5L809.5 454.5L803.6 444.5L803.3 444.5L797.4 454.5L790.3 454.5L799.4 439.9L790.5 425.4ZM825.9 441.9L825.9 441.9L825.9 454.5L819.8 454.5L819.8 425.4L825.7 425.4L825.7 436.5L826.0 436.5Q826.7 434.6 828.4 433.5Q830.0 432.4 832.5 432.4L832.5 432.4Q834.8 432.4 836.5 433.4Q838.2 434.3 839.1 436.2Q840.1 438.0 840.0 440.6L840.0 440.6L840.0 454.5L834.0 454.5L834.0 441.7Q834.0 439.6 833.0 438.5Q831.9 437.4 830.1 437.4L830.1 437.4Q828.9 437.4 827.9 437.9Q827.0 438.5 826.4 439.5Q825.9 440.5 825.9 441.9ZM850.7 454.9L850.7 454.9Q848.6 454.9 847.0 454.2Q845.4 453.4 844.4 452.0Q843.5 450.5 843.5 448.4L843.5 448.4Q843.5 446.6 844.1 445.3Q844.8 444.1 846.0 443.3Q847.1 442.6 848.6 442.2Q850.0 441.8 851.7 441.7L851.7 441.7Q853.6 441.5 854.7 441.3Q855.9 441.1 856.4 440.8Q857.0 440.4 857.0 439.7L857.0 439.7L857.0 439.6Q857.0 438.3 856.1 437.5Q855.3 436.8 853.7 436.8L853.7 436.8Q852.1 436.8 851.1 437.5Q850.1 438.2 849.8 439.3L849.8 439.3L844.2 438.8Q844.7 436.9 845.9 435.4Q847.2 433.9 849.1 433.2Q851.1 432.4 853.7 432.4L853.7 432.4Q855.6 432.4 857.2 432.8Q858.9 433.2 860.2 434.1Q861.5 435.0 862.2 436.4Q863.0 437.8 863.0 439.8L863.0 439.8L863.0 454.5L857.3 454.5L857.3 451.4L857.1 451.4Q856.6 452.5 855.7 453.2Q854.8 454.0 853.6 454.5Q852.3 454.9 850.7 454.9ZM852.4 450.7L852.4 450.7Q853.8 450.7 854.8 450.2Q855.8 449.6 856.4 448.7Q857.0 447.8 857.0 446.7L857.0 446.7L857.0 444.4Q856.7 444.5 856.2 444.7Q855.7 444.8 855.1 445.0Q854.5 445.1 853.9 445.2Q853.3 445.3 852.8 445.3L852.8 445.3Q851.7 445.5 850.9 445.8Q850.1 446.2 849.7 446.8Q849.3 447.3 849.3 448.2L849.3 448.2Q849.3 449.4 850.2 450.1Q851.1 450.7 852.4 450.7ZM873.4 454.5L867.4 454.5L867.4 432.7L873.2 432.7L873.2 436.5L873.5 436.5Q874.1 434.4 875.5 433.4Q876.9 432.3 878.7 432.3L878.7 432.3Q879.2 432.3 879.7 432.4Q880.2 432.5 880.6 432.6L880.6 432.6L880.6 437.9Q880.2 437.8 879.4 437.7Q878.7 437.6 878.1 437.6L878.1 437.6Q876.7 437.6 875.7 438.2Q874.6 438.7 874.0 439.8Q873.4 440.8 873.4 442.1L873.4 442.1L873.4 454.5ZM883.4 455.5L883.4 432.7L889.5 432.7L889.5 455.6Q889.5 458.1 888.5 459.6Q887.5 461.2 885.6 461.9Q883.8 462.7 881.2 462.7L881.2 462.7Q880.9 462.7 880.6 462.6Q880.3 462.6 880.0 462.6L880.0 462.6L880.0 457.9Q880.2 457.9 880.4 457.9Q880.6 457.9 880.8 457.9L880.8 457.9Q882.2 457.9 882.8 457.3Q883.4 456.7 883.4 455.5L883.4 455.5ZM886.4 429.8L886.4 429.8Q885.1 429.8 884.1 428.9Q883.2 428.0 883.2 426.8L883.2 426.8Q883.2 425.5 884.1 424.6Q885.1 423.7 886.4 423.7L886.4 423.7Q887.8 423.7 888.7 424.6Q889.7 425.5 889.7 426.8L889.7 426.8Q889.7 428.0 888.7 428.9Q887.8 429.8 886.4 429.8ZM900.2 454.9L900.2 454.9Q898.1 454.9 896.5 454.2Q894.8 453.4 893.9 452.0Q893.0 450.5 893.0 448.4L893.0 448.4Q893.0 446.6 893.6 445.3Q894.3 444.1 895.4 443.3Q896.6 442.6 898.1 442.2Q899.5 441.8 901.1 441.7L901.1 441.7Q903.0 441.5 904.2 441.3Q905.4 441.1 905.9 440.8Q906.4 440.4 906.4 439.7L906.4 439.7L906.4 439.6Q906.4 438.3 905.6 437.5Q904.7 436.8 903.2 436.8L903.2 436.8Q901.6 436.8 900.6 437.5Q899.6 438.2 899.3 439.3L899.3 439.3L893.7 438.8Q894.1 436.9 895.4 435.4Q896.6 433.9 898.6 433.2Q900.6 432.4 903.2 432.4L903.2 432.4Q905.0 432.4 906.7 432.8Q908.4 433.2 909.7 434.1Q911.0 435.0 911.7 436.4Q912.5 437.8 912.5 439.8L912.5 439.8L912.5 454.5L906.7 454.5L906.7 451.4L906.6 451.4Q906.0 452.5 905.2 453.2Q904.3 454.0 903.0 454.5Q901.8 454.9 900.2 454.9ZM901.9 450.7L901.9 450.7Q903.3 450.7 904.3 450.2Q905.3 449.6 905.9 448.7Q906.5 447.8 906.5 446.7L906.5 446.7L906.5 444.4Q906.2 444.5 905.7 444.7Q905.2 444.8 904.6 445.0Q904.0 445.1 903.4 445.2Q902.8 445.3 902.3 445.3L902.3 445.3Q901.2 445.5 900.4 445.8Q899.6 446.2 899.2 446.8Q898.7 447.3 898.7 448.2L898.7 448.2Q898.7 449.4 899.6 450.1Q900.5 450.7 901.9 450.7Z "/></svg>