<!-- Generated by IcoMoon.io -->
<svg version="1.1" xmlns="http://www.w3.org/2000/svg" width="32" height="32" viewBox="0 0 32 32">
<title>sunglasses</title>
<path d="M18.010 14.967h10.976c0.030 0.355 0.008 0.709-0.023 1h-10.841c-0.086-0.313-0.147-0.665-0.112-1zM18.609 13.967c0.118-0.076 0.257-0.143 0.419-0.198 1.79-0.604 3.633-0.767 4.639-0.795s3.865-0.013 4.642 0.547c0.168 0.121 0.298 0.274 0.397 0.445h-10.097zM13.489 16.967c-0.103 0.286-0.277 0.647-0.494 1v0h-9.528c-0.108-0.3-0.203-0.66-0.272-1h10.294zM13.842 15.967h-10.798c-0.031-0.291-0.053-0.645-0.021-1h10.926c0.039 0.334-0.021 0.687-0.108 1zM12.187 18.967c-0.050 0.043-0.101 0.083-0.152 0.119-0.66 0.465-2.109 0.835-3.93 0.835-1.058 0-1.916-0.050-2.761-0.24-0.604-0.136-0.992-0.261-1.345-0.714h8.188zM13.305 13.967h-9.986c0.096-0.157 0.22-0.296 0.377-0.408 0.774-0.553 3.62-0.567 4.622-0.54s2.837 0.188 4.619 0.784c0.139 0.046 0.261 0.102 0.367 0.164zM28.546 17.967h-9.588c-0.214-0.354-0.385-0.715-0.486-1h10.342c-0.068 0.339-0.161 0.698-0.268 1zM28.030 18.967c-0.362 0.486-0.755 0.616-1.376 0.757-0.849 0.193-1.711 0.243-2.773 0.243-1.829 0-3.284-0.375-3.946-0.846-0.064-0.045-0.127-0.097-0.19-0.154h8.285zM15.059 12.975c-4.367-1.204-10.525-1.147-13.693-0.614-0.383 0.064-0.443 1.823-0.102 1.884 0.626 0.253 0.893 0.885 0.893 0.885s0.187 0.561 0.73 2.841c0.543 2.28 1.837 2.554 1.837 2.554s1.584 0.392 3.412 0.392c1.827 0 2.921-0.083 4.091-0.668s1.682-2.216 1.682-2.216c0 0 0.59-1.405 0.996-2.73 0.127-0.416 2.065-0.416 2.192 0 0.406 1.326 0.996 2.73 0.996 2.73s0.512 1.63 1.682 2.216c1.17 0.585 2.264 0.668 4.091 0.668s3.412-0.392 3.412-0.392c0 0 1.294-0.273 1.837-2.554s0.73-2.841 0.73-2.841c0 0 0.267-0.632 0.893-0.885 0.34-0.062 0.28-1.82-0.102-1.884-3.168-0.534-9.325-0.59-13.693 0.614-0.296 0.068-1.586 0.068-1.882 0v0z"></path>
</svg>
