<?xml version="1.0" standalone="no"?>
<!DOCTYPE svg PUBLIC "-//W3C//DTD SVG 20010904//EN"
 "http://www.w3.org/TR/2001/REC-SVG-20010904/DTD/svg10.dtd">
<svg version="1.0" xmlns="http://www.w3.org/2000/svg"
 width="800.000000pt" height="800.000000pt" viewBox="0 0 800.000000 800.000000"
 preserveAspectRatio="xMidYMid meet">
<metadata>
Created by potrace 1.11, written by Peter Selinger 2001-2013
</metadata>
<g transform="translate(0.000000,800.000000) scale(0.100000,-0.100000)"
fill="#000000" stroke="none">
<path d="M3820 7984 c-417 -28 -735 -86 -1067 -195 -1300 -426 -2291 -1485
-2628 -2809 -89 -350 -119 -601 -119 -985 0 -311 12 -452 60 -715 145 -785
510 -1494 1059 -2059 659 -678 1491 -1086 2440 -1197 209 -25 661 -25 870 0
896 105 1707 485 2338 1095 311 301 607 693 763 1012 l27 57 -49 69 c-77 110
-134 172 -199 216 -33 22 -76 53 -95 68 -19 14 -75 43 -125 64 -84 36 -116 50
-270 120 -33 15 -125 51 -205 81 -240 91 -875 401 -1055 515 -22 14 -67 38
-99 55 -67 33 -110 84 -126 148 -27 111 -112 241 -186 287 -37 23 -169 61
-178 51 -9 -9 -7 -102 5 -171 5 -35 22 -91 36 -125 25 -60 25 -63 16 -178 -10
-108 -14 -124 -53 -204 -52 -104 -118 -178 -255 -287 -55 -43 -127 -105 -160
-137 -70 -67 -87 -74 -149 -60 -50 11 -67 5 -115 -37 -14 -13 -28 -23 -31 -23
-3 0 -37 -30 -75 -66 -38 -36 -82 -72 -98 -81 -27 -14 -31 -13 -68 14 -22 15
-61 43 -87 61 -78 56 -132 103 -132 115 0 7 -11 36 -25 65 -14 30 -27 64 -29
75 -10 49 -39 132 -54 155 -20 31 -33 110 -18 116 8 3 8 7 0 13 -6 4 -14 35
-18 69 -5 49 -4 64 9 74 18 15 20 34 3 24 -10 -5 -10 -3 0 7 11 11 14 11 21 1
4 -8 14 -13 22 -12 28 4 39 0 39 -16 0 -9 9 -18 20 -21 11 -3 20 -10 20 -15 0
-13 117 -128 130 -128 6 0 18 -8 28 -18 9 -9 30 -25 45 -35 26 -17 29 -17 50
0 20 14 23 26 22 79 0 34 -3 66 -7 69 -4 4 6 20 21 36 24 24 29 37 30 85 1 49
-5 70 -37 131 -36 72 -37 74 -18 89 11 7 34 14 50 14 59 1 164 29 238 64 92
44 241 174 171 149 -10 -3 -23 -12 -30 -20 -6 -8 -14 -14 -17 -14 -3 1 -9 0
-13 0 -5 -1 -15 -2 -23 -3 -9 0 -14 -9 -13 -21 1 -11 0 -14 -3 -7 -9 19 -34
14 -34 -8 0 -27 -14 -25 -28 3 -10 22 -11 22 -11 -5 -1 -41 -36 -39 -44 2 -5
22 -12 30 -27 30 -17 0 -20 -4 -15 -20 5 -16 2 -20 -14 -20 -19 0 -27 20 -22
53 0 4 -8 7 -19 7 -20 0 -28 16 -11 22 5 1 3 12 -5 22 -7 11 -17 16 -21 11 -5
-4 -2 -10 5 -12 17 -6 15 -23 -3 -23 -10 0 -15 11 -16 33 -1 22 -3 25 -6 10
-3 -13 -10 -20 -17 -17 -8 3 -16 -4 -19 -15 -6 -24 -27 -29 -27 -7 0 9 -12 16
-27 18 -22 2 -29 9 -31 31 -2 20 -8 27 -18 23 -9 -3 -14 1 -14 14 0 11 6 20
13 20 8 0 8 3 1 8 -6 4 -14 16 -19 27 -7 19 -9 27 -13 83 -3 30 -24 28 -44 -5
-10 -16 -18 -22 -18 -15 0 20 -26 14 -44 -11 -11 -13 -15 -16 -12 -5 3 10 -3
18 -16 21 -14 4 -18 11 -13 25 3 11 1 23 -5 27 -5 3 -10 17 -10 30 0 18 6 25
28 28 26 4 26 4 5 12 -15 5 -23 15 -22 29 0 11 3 15 6 9 8 -22 41 -14 70 15
21 20 38 28 65 27 20 0 40 -4 45 -9 5 -5 1 -7 -9 -3 -14 5 -18 1 -17 -16 0
-12 3 -16 6 -9 2 6 9 10 14 6 13 -8 30 44 23 72 -4 14 -2 24 4 24 16 0 25 -19
28 -60 3 -27 -2 -42 -16 -55 -22 -20 -26 -35 -10 -35 6 0 10 7 10 15 0 8 5 15
10 15 6 0 10 -5 10 -10 0 -6 10 -8 23 -6 12 3 39 8 60 11 27 4 37 11 37 24 0
11 8 22 17 26 16 6 16 8 -5 24 l-23 17 33 -4 c26 -2 36 2 47 19 11 19 11 23
-3 31 -12 7 -14 14 -6 28 11 20 -6 41 -19 23 -3 -5 -24 -9 -46 -8 -22 1 -52
-2 -67 -6 -22 -6 -28 -4 -28 9 0 12 -3 13 -8 5 -18 -29 -122 26 -122 64 0 17
27 17 33 1 4 -10 6 -10 6 0 1 8 17 12 46 12 25 0 61 7 81 15 19 8 38 14 42 14
11 0 52 42 52 53 0 6 -7 5 -15 -2 -20 -17 -29 -7 -17 17 14 26 52 43 130 59 7
1 19 -4 26 -12 20 -19 26 -18 26 6 0 12 5 17 14 14 10 -4 13 -17 10 -45 -4
-31 -2 -38 10 -33 9 3 14 11 13 17 -1 6 15 11 38 12 22 0 51 7 65 14 13 8 48
13 76 12 l53 -1 -11 36 c-7 27 -7 39 2 44 9 6 7 15 -6 35 -17 26 -17 28 -1 40
22 16 17 51 -11 71 -13 8 -22 11 -22 5 0 -6 4 -11 9 -11 5 0 11 -7 14 -14 4
-10 1 -13 -9 -9 -10 4 -14 -2 -14 -21 0 -19 -5 -26 -19 -26 -17 0 -18 -4 -9
-35 6 -19 15 -32 20 -29 4 3 8 -1 8 -9 0 -21 -50 -26 -165 -16 -91 8 -127 7
-192 -7 -20 -4 -23 0 -23 26 0 31 -17 39 -38 18 -15 -15 -112 6 -142 30 -25
21 -17 62 12 62 10 0 17 4 14 9 -3 5 1 11 9 15 10 3 15 -1 15 -13 0 -21 29
-37 83 -46 33 -5 38 -3 46 17 6 15 5 28 -3 37 -9 11 -7 13 12 7 12 -3 30 -8
41 -11 17 -5 20 7 12 46 0 3 -13 5 -28 3 -16 -2 -21 -1 -12 2 9 3 17 16 17 30
0 19 -3 22 -14 13 -8 -6 -11 -16 -8 -21 4 -6 -4 -4 -17 3 -24 13 -24 14 -3 17
21 3 42 42 23 42 -5 0 -9 -4 -9 -10 0 -5 -10 -10 -22 -9 -13 0 -17 3 -10 6 17
7 15 33 -3 33 -7 0 -19 -8 -25 -17 -9 -15 -10 -14 -5 7 l5 25 -12 -25 c-7 -14
-13 -26 -14 -28 -1 -2 -12 1 -23 8 -28 15 -27 51 4 80 31 29 34 54 5 45 -11
-4 -20 -2 -20 4 0 6 6 11 13 12 6 0 2 4 -11 9 -12 5 -27 22 -33 37 -12 31 -7
152 7 174 9 14 10 38 17 274 4 145 14 185 46 185 35 0 68 -45 96 -131 33 -104
85 -191 130 -219 30 -19 55 -22 207 -27 185 -6 383 8 467 33 62 18 93 54 121
141 25 77 36 93 43 67 15 -55 17 -102 6 -168 -11 -63 -10 -76 4 -106 21 -41
22 -112 2 -150 -15 -28 -9 -46 11 -32 33 24 38 131 8 177 -14 21 -14 36 -5
106 6 45 11 117 11 160 0 69 2 78 20 84 11 3 20 12 20 20 0 7 12 22 26 32 21
15 30 35 40 89 24 118 33 157 44 204 7 25 16 100 20 166 14 192 44 321 87 374
20 26 44 131 42 191 -1 31 1 62 6 69 4 7 9 63 11 124 2 61 6 130 10 153 5 35
3 44 -15 55 -17 10 -21 23 -21 69 0 37 -5 61 -14 68 -8 7 -18 27 -21 44 -15
68 -47 128 -79 144 -51 26 -191 144 -301 253 -33 32 -89 74 -124 92 -35 18
-85 51 -110 74 -33 29 -63 45 -106 57 -33 8 -73 22 -90 31 -16 9 -41 16 -56
16 -14 0 -30 5 -36 11 -36 36 -531 69 -783 53z m697 -1086 c11 -17 69 -40 116
-45 21 -3 37 -11 37 -18 0 -12 18 -18 110 -33 54 -9 104 -44 121 -84 6 -16 22
-31 35 -34 13 -3 24 -11 24 -18 0 -6 15 -40 34 -76 18 -36 36 -79 39 -95 3
-17 11 -50 17 -75 7 -26 9 -72 6 -110 -6 -65 1 -100 34 -176 19 -43 36 -122
44 -211 5 -48 3 -53 -15 -53 -12 0 -26 12 -37 32 -19 37 -89 108 -147 151 -28
19 -51 27 -84 28 -25 1 -109 3 -186 6 -77 2 -153 5 -170 5 -16 0 -31 -4 -33
-11 -6 -19 -22 -12 -22 10 0 18 -2 19 -15 9 -10 -8 -15 -9 -15 -1 0 12 -46 -6
-69 -27 -8 -7 -17 -10 -20 -5 -3 4 -17 8 -31 8 -26 0 -37 -23 -39 -82 -1 -24
-6 -32 -21 -35 -20 -3 -19 -5 6 -40 20 -28 34 -38 54 -38 19 0 29 -6 33 -19 7
-29 -80 -65 -158 -65 -56 -1 -60 0 -69 27 -7 19 -7 33 1 46 8 13 7 23 -3 42
-7 13 -14 33 -14 44 -1 18 -2 18 -10 -3 l-10 -22 -21 21 c-11 11 -18 27 -15
35 4 10 -2 14 -18 14 -12 0 -33 11 -46 25 -14 15 -35 25 -51 25 -15 0 -29 5
-31 11 -4 13 -74 39 -105 39 -13 0 -23 5 -23 11 0 5 -5 7 -11 3 -6 -3 -15 0
-20 7 -7 11 -11 11 -17 1 -6 -9 -15 -4 -35 18 -32 35 -32 37 -9 43 11 3 7 5
-10 6 -37 1 -45 19 -13 31 20 7 25 15 20 29 -3 10 0 31 7 46 11 24 13 25 19 8
4 -10 6 10 4 44 -2 46 1 63 11 67 19 7 18 26 -1 26 -8 0 -15 4 -15 9 0 5 -8 8
-17 7 -13 -1 -19 7 -21 27 -2 17 1 27 9 27 9 0 8 4 -3 13 -23 18 -30 97 -12
132 8 16 12 35 10 42 -3 7 -1 13 4 13 6 0 10 5 10 11 0 5 -4 7 -10 4 -5 -3
-10 1 -10 10 0 11 6 15 19 10 19 -6 47 18 38 33 -3 4 -1 14 4 22 8 12 12 12
16 3 2 -7 9 -13 14 -13 6 0 8 4 4 9 -3 5 -1 12 4 15 5 3 12 -5 15 -19 5 -18
11 -23 23 -18 15 6 14 7 -3 13 -13 5 -2 9 36 15 30 4 70 15 88 26 18 10 30 15
27 9 -3 -5 0 -10 9 -10 8 0 21 -3 30 -6 12 -4 16 0 17 17 1 17 3 19 6 7 3 -14
9 -15 30 -7 14 5 51 12 82 16 31 3 57 9 59 13 1 4 14 5 27 2 14 -2 31 0 38 6
7 6 35 11 62 11 28 0 61 4 75 10 37 14 147 14 157 -1z m446 -1071 c58 -21 63
-30 37 -71 -19 -31 -27 -36 -61 -36 -37 0 -44 6 -40 37 1 7 -5 26 -13 41 -8
16 -12 32 -9 36 10 10 45 7 86 -7z m-599 -53 c20 -8 21 -40 1 -48 -8 -3 -15
-10 -15 -17 0 -6 7 -9 15 -5 10 4 15 -1 15 -14 0 -11 6 -20 13 -20 7 0 6 -4
-4 -10 -36 -21 7 -96 62 -107 16 -3 29 -11 29 -18 0 -14 36 -9 57 7 7 5 17 7
22 4 5 -4 12 -2 16 4 3 5 27 10 53 11 38 0 44 2 31 11 -15 10 -14 14 10 33 30
25 114 49 119 35 2 -6 13 -10 24 -10 15 0 18 -5 13 -20 -9 -29 9 -25 50 11 36
32 94 47 137 35 13 -3 43 -25 67 -48 25 -24 42 -36 39 -27 -9 22 4 40 22 29
11 -7 12 -19 1 -77 -32 -181 -99 -209 -471 -201 -266 6 -298 20 -347 155 -14
39 -27 101 -30 148 -5 77 -5 81 23 113 16 17 29 32 30 32 1 0 9 -3 18 -6z
m-764 -13 c0 -12 -20 -25 -27 -18 -7 7 6 27 18 27 5 0 9 -4 9 -9z m53 -16 c-7
-21 -13 -19 -13 6 0 11 4 18 10 14 5 -3 7 -12 3 -20z m1052 15 c3 -5 -1 -10
-9 -10 -9 0 -16 5 -16 10 0 6 4 10 9 10 6 0 13 -4 16 -10z m550 0 c3 -6 -5
-10 -19 -10 -14 0 -28 5 -31 10 -3 6 5 10 19 10 14 0 28 -4 31 -10z m-475 -34
c0 -16 -26 -39 -38 -34 -15 5 6 48 23 48 8 0 15 -6 15 -14z m-1671 -236 c7
-25 24 -64 37 -87 16 -28 20 -41 11 -37 -49 18 -96 197 -81 303 l8 56 7 -95
c3 -52 12 -115 18 -140z m1341 210 c0 -5 -7 -10 -16 -10 -8 0 -12 5 -9 10 3 6
10 10 16 10 5 0 9 -4 9 -10z m840 -30 c0 -5 -4 -10 -10 -10 -5 0 -10 5 -10 10
0 6 5 10 10 10 6 0 10 -4 10 -10z m-1686 -1156 c5 -13 -18 -44 -34 -44 -10 0
-22 48 -15 60 7 12 43 1 49 -16z m560 -51 c6 -14 -29 -28 -44 -18 -5 3 -10 12
-10 18 0 16 48 16 54 0z m-194 -273 c0 -5 -4 -10 -10 -10 -5 0 -10 5 -10 10 0
6 5 10 10 10 6 0 10 -4 10 -10z m281 -2190 c25 -14 49 -62 49 -100 0 -39 -34
-74 -63 -66 -12 3 -25 6 -29 6 -13 0 -48 78 -48 105 0 28 32 65 56 65 8 0 24
-5 35 -10z"/>
<path d="M3810 6760 c0 -5 5 -10 10 -10 6 0 10 5 10 10 0 6 -4 10 -10 10 -5 0
-10 -4 -10 -10z"/>
<path d="M4921 6644 c0 -11 3 -14 6 -6 3 7 2 16 -1 19 -3 4 -6 -2 -5 -13z"/>
<path d="M4130 6375 c0 -8 7 -15 15 -15 9 0 12 6 9 15 -4 8 -10 15 -15 15 -5
0 -9 -7 -9 -15z"/>
<path d="M3998 6023 c7 -3 16 -2 19 1 4 3 -2 6 -13 5 -11 0 -14 -3 -6 -6z"/>
<path d="M4212 1943 c4 -21 33 -25 33 -3 0 8 -8 16 -18 18 -14 3 -18 -1 -15
-15z"/>
<path d="M5355 5591 c-3 -5 6 -27 20 -48 22 -31 26 -48 25 -98 -2 -81 -2 -85
10 -85 19 0 40 60 40 112 0 73 -7 92 -40 111 -32 19 -46 21 -55 8z"/>
<path d="M4278 5029 c-24 -13 -23 -31 2 -47 11 -7 20 -18 20 -26 0 -21 32 -9
53 20 18 24 18 26 1 45 -19 21 -49 24 -76 8z"/>
<path d="M4304 4905 c11 -8 27 -15 35 -15 9 0 3 7 -13 15 -36 19 -47 19 -22 0z"/>
<path d="M4260 4870 c0 -5 5 -10 11 -10 5 0 7 5 4 10 -3 6 -8 10 -11 10 -2 0
-4 -4 -4 -10z"/>
<path d="M4317 4794 c-3 -20 1 -28 19 -36 18 -8 30 -6 58 12 20 12 34 26 30
31 -10 16 -32 10 -37 -11 -5 -20 -27 -28 -27 -10 0 6 -7 10 -16 10 -10 0 -14
6 -10 15 3 8 2 15 -3 15 -5 0 -11 -12 -14 -26z"/>
<path d="M4290 4765 c0 -18 19 -40 26 -32 4 4 0 15 -9 24 -9 10 -17 13 -17 8z"/>
<path d="M4391 4744 c-12 -28 3 -33 32 -11 16 11 16 13 -2 24 -16 10 -20 8
-30 -13z"/>
<path d="M4495 4730 c3 -5 1 -10 -4 -10 -6 0 -11 -5 -11 -10 0 -7 6 -7 19 -1
10 6 21 7 25 4 3 -3 6 1 6 10 0 10 -8 17 -21 17 -11 0 -17 -4 -14 -10z"/>
<path d="M4420 4716 c0 -2 7 -7 16 -10 8 -3 12 -2 9 4 -6 10 -25 14 -25 6z"/>
<path d="M4015 4060 c3 -5 8 -10 11 -10 2 0 4 5 4 10 0 6 -5 10 -11 10 -5 0
-7 -4 -4 -10z"/>
<path d="M3970 4050 c0 -5 5 -10 11 -10 5 0 7 5 4 10 -3 6 -8 10 -11 10 -2 0
-4 -4 -4 -10z"/>
<path d="M4060 4025 c-10 -12 -10 -15 4 -15 9 0 16 7 16 15 0 8 -2 15 -4 15
-2 0 -9 -7 -16 -15z"/>
<path d="M4160 3888 c0 -7 5 -20 10 -28 8 -12 10 -9 10 13 0 15 -4 27 -10 27
-5 0 -10 -6 -10 -12z"/>
</g>
</svg>
